<?xml version="1.0" encoding="UTF-8" standalone="no"?>
<svg xmlns="http://www.w3.org/2000/svg" xmlns:xlink="http://www.w3.org/1999/xlink" width="128" height="128" version="1.0">
  <defs>
    <linearGradient id="b">
      <stop offset="0" stop-color="#fff"/>
      <stop offset="1" stop-color="#fff" stop-opacity="0"/>
    </linearGradient>
    <linearGradient id="a">
      <stop offset="0" stop-color="#fff"/>
      <stop offset="1" stop-color="#fff" stop-opacity="0"/>
    </linearGradient>
    <linearGradient id="j">
      <stop offset="0"/>
      <stop offset="1" stop-opacity="0"/>
    </linearGradient>
    <linearGradient id="c">
      <stop offset="0" stop-color="#fff"/>
      <stop offset="1" stop-color="#fff" stop-opacity="0"/>
    </linearGradient>
    <linearGradient id="o">
      <stop offset="0"/>
      <stop offset="1" stop-opacity="0"/>
    </linearGradient>
    <linearGradient id="n">
      <stop offset="0" stop-color="#fff"/>
      <stop offset="1" stop-color="#fff" stop-opacity="0"/>
    </linearGradient>
    <linearGradient id="p">
      <stop offset="0"/>
      <stop offset="1" stop-color="#cecece" stop-opacity="0"/>
    </linearGradient>
    <linearGradient id="k">
      <stop offset="0" stop-color="#fff"/>
      <stop offset="1" stop-color="#fff" stop-opacity="0"/>
    </linearGradient>
    <linearGradient id="m">
      <stop offset="0"/>
      <stop offset="1" stop-opacity="0"/>
    </linearGradient>
    <linearGradient id="l">
      <stop offset="0" stop-color="#fff"/>
      <stop offset="0" stop-color="#fff" stop-opacity=".49803922"/>
      <stop offset=".75" stop-color="#ccc" stop-opacity=".24705882"/>
      <stop offset="1" stop-color="#fff" stop-opacity="0"/>
    </linearGradient>
    <linearGradient id="d">
      <stop offset="0" stop-color="#fff"/>
      <stop offset="1" stop-color="#fff" stop-opacity="0"/>
    </linearGradient>
    <linearGradient id="e">
      <stop offset="0" stop-color="#fff"/>
      <stop offset="1" stop-color="#fff" stop-opacity="0"/>
    </linearGradient>
    <linearGradient id="f">
      <stop offset="0" stop-opacity=".50180507"/>
      <stop offset=".13736264" stop-opacity="0"/>
      <stop offset=".29486871" stop-color="#fff" stop-opacity="0"/>
      <stop offset=".58544481" stop-color="#fff" stop-opacity=".79061371"/>
      <stop offset="1" stop-opacity="0"/>
    </linearGradient>
    <linearGradient id="g">
      <stop offset="0"/>
      <stop offset="1" stop-opacity="0"/>
    </linearGradient>
    <linearGradient id="h">
      <stop offset="0" stop-color="#434542"/>
      <stop offset=".07692308" stop-color="#cecfce"/>
      <stop offset="1" stop-color="#fff"/>
    </linearGradient>
    <linearGradient id="i">
      <stop offset="0" stop-color="#fff"/>
      <stop offset="1" stop-color="#aeaeae"/>
    </linearGradient>
    <linearGradient xlink:href="#a" id="N" x1="2.8306181" x2="72.203644" y1="59.085014" y2="40.496567" gradientUnits="userSpaceOnUse"/>
    <linearGradient xlink:href="#b" id="L" x1="93.33567" x2="74.893776" y1="106.69383" y2="37.005783" gradientUnits="userSpaceOnUse"/>
    <linearGradient xlink:href="#c" id="J" x1="161.70087" x2="114.86171" y1="-29.581095" y2="-76.33387" gradientTransform="matrix(.98683 0 0 .98405 -49.34941 113.3279)" gradientUnits="userSpaceOnUse"/>
    <linearGradient xlink:href="#d" id="B" x1="-11.687261" x2="66.459869" y1="43.783871" y2="88.829872" gradientTransform="translate(-97.588168 5.8864649) scale(1.29519)" gradientUnits="userSpaceOnUse"/>
    <linearGradient xlink:href="#e" id="A" x1="79.971962" x2="-8.2177124" y1="-4.4959302" y2="148.00919" gradientTransform="matrix(.75073 -.74865 .75073 .74865 -31.208642 59.856941)" gradientUnits="userSpaceOnUse"/>
    <linearGradient xlink:href="#f" id="z" x1="94.15625" x2="94.15625" y1="58.84375" y2="50.607132" gradientTransform="matrix(.89674 -.89426 .89674 .89426 -49.678005 60.897006)" gradientUnits="userSpaceOnUse"/>
    <linearGradient xlink:href="#g" id="y" x1="94.478127" x2="94.478127" y1="67.146591" y2="64.642754" gradientTransform="matrix(.89674 -.89426 .89674 .89426 -49.678005 60.897006)" gradientUnits="userSpaceOnUse"/>
    <linearGradient xlink:href="#h" id="x" x1="64.15625" x2="127.31514" y1="63.796875" y2="63.796875" gradientTransform="matrix(.89674 -.89426 .89674 .89426 -49.678005 60.897006)" gradientUnits="userSpaceOnUse"/>
    <linearGradient xlink:href="#h" id="w" x1="63.498344" x2="124.625" y1="49.15625" y2="49.15625" gradientTransform="matrix(.89674 -.89426 .89674 .89426 -49.678005 60.897006)" gradientUnits="userSpaceOnUse"/>
    <linearGradient xlink:href="#i" id="v" x1="132.77945" x2="-20.653816" y1="22.707912" y2="91.103127" gradientTransform="matrix(.89674 -.89426 .89674 .89426 -49.678006 60.897)" gradientUnits="userSpaceOnUse"/>
    <radialGradient xlink:href="#j" id="K" cx="45.357376" cy="86.038712" r="36.515625" fx="45.357376" fy="86.038712" gradientTransform="matrix(1 0 0 1.13222 0 -5.7392089)" gradientUnits="userSpaceOnUse"/>
    <radialGradient xlink:href="#k" id="I" cx="29.341269" cy="2.4504917" r="63.399038" fx="29.341269" fy="2.4504917" gradientTransform="matrix(.82377 -.82149 .231 .23036 -9.6375725 82.613254)" gradientUnits="userSpaceOnUse"/>
    <radialGradient xlink:href="#l" id="H" cx="96.350143" cy="66.806999" r="31.649858" fx="96.350143" fy="66.806999" gradientTransform="matrix(.82377 -.82149 .00728 .00726 17.987705 110.3931)" gradientUnits="userSpaceOnUse"/>
    <radialGradient xlink:href="#m" id="G" cx="96.094643" cy="62.475086" r="30.94986" fx="96.094643" fy="62.475086" gradientTransform="matrix(.82377 -.82149 .00285 .00284 14.645972 106.82958)" gradientUnits="userSpaceOnUse"/>
    <radialGradient xlink:href="#l" id="F" cx="92.454208" cy="71.239235" r="29.344931" fx="109.07122" fy="64.119919" gradientTransform="matrix(1.20308 -1.19975 .14318 .14279 -17.700767 144.51639)" gradientUnits="userSpaceOnUse"/>
    <radialGradient xlink:href="#l" id="E" cx="32.381508" cy="14.567998" r="63.893538" fx="32.381508" fy="14.567998" gradientTransform="matrix(.4797 -.12511 .04608 .17568 3.4169877 58.561962)" gradientUnits="userSpaceOnUse"/>
    <radialGradient xlink:href="#l" id="D" cx="98.227898" cy="44.293781" r="63.893538" fx="98.227898" fy="44.293781" gradientTransform="matrix(.76555 -.76344 .12876 .1284 -3.8506732 92.929759)" gradientUnits="userSpaceOnUse"/>
    <radialGradient xlink:href="#l" id="C" cx="98.227898" cy="44.293781" r="63.893538" fx="98.227898" fy="44.293781" gradientTransform="matrix(.76555 -.76344 .12876 .1284 -3.8506732 92.929759)" gradientUnits="userSpaceOnUse"/>
    <radialGradient xlink:href="#n" id="u" cx="92.813255" cy="-54.063927" r="60.286509" fx="92.813255" fy="-54.063927" gradientTransform="matrix(1.33488 -1.33488 .3565 .3565 -75.341094 227.72298)" gradientUnits="userSpaceOnUse"/>
    <radialGradient xlink:href="#o" id="t" cx="72.253944" cy="-43.000839" r="60.286509" fx="72.253944" fy="-43.000839" gradientTransform="matrix(.51512 0 0 .49768 -15.266544 92.164288)" gradientUnits="userSpaceOnUse"/>
    <radialGradient xlink:href="#p" id="s" cx="119.93565" cy="-20.059092" r="60.286509" fx="119.93565" fy="-20.059092" gradientTransform="matrix(.86577 -.23198 .47585 1.7759 -24.284936 157.05156)" gradientUnits="userSpaceOnUse"/>
    <filter id="r">
      <feGaussianBlur stdDeviation=".59349418"/>
    </filter>
    <filter id="M">
      <feGaussianBlur stdDeviation=".57079104"/>
    </filter>
    <filter id="O">
      <feGaussianBlur stdDeviation=".51442491"/>
    </filter>
    <filter id="q">
      <feGaussianBlur stdDeviation="2.4348633"/>
    </filter>
  </defs>
  <path stroke="#000" stroke-dashoffset="4" stroke-linecap="round" stroke-linejoin="round" stroke-width="3.04432845" d="M64.966776-54.053699c-13.786661 13.787412-13.786661 36.19619 0 49.9836107 13.786663 13.7873967 36.164964 13.7581367 49.951614-.029271 6.21699-6.2173117 9.63083-14.1766877 10.242-22.2994747.00441-.058755-.00414-.116824-.00001-.175593-.00571-.115456.00669-.235749 0-.351168-.15046-2.598242-.55585-5.160637-1.19978-7.69654l48.42997-48.432591c.39026-.390287.75282-.811569 1.0242-1.258366 1.10121-1.113587 1.78503-2.696976 1.78503-4.477463l-.02926-15.656455c-.00001-3.38076-2.44998-6.11626-5.53068-6.11626l-11.55881.02926c0 .46101-.14424.90512-.49748 1.25838l-1.11197 1.11203h-5.03321c-.99912.00001-1.81431.81525-1.8143 1.81441l.05853 3.6873h-5.55993c-.27917.00001-.55474.09264-.79011.20486-.08296.03375-.15582.07039-.23409.11705-.0236.01591-.03575.04156-.05854.05853-.10009.06624-.17504.11653-.26335.20485l-3.33597 3.336154c-.04954.04954-.07446.1221-.11705.17558-.40146.33003-.67304.812445-.67304 1.375432l.02926 6.818606-6.02814 6.028468h-6.84749c-.9991 0-1.8143.815244-1.8143 1.814392v3.921431h-5.26731c-.99909.000002-1.8143.815253-1.8143 1.814394l.02927 8.164769-2.98481 2.98497c-.70645.706499-1.8394.677236-2.54587-.029265l-2.04839-2.048508c-1.14496-1.145028-2.33517-.766736-3.16038.05853l-5.64773 5.648029c-1.868338-.807305-3.78835-1.473994-5.735506-1.989979-.066648-.017663-.13812-.011945-.204839-.029266-10.526313-1.399799-21.560232 1.895726-29.643229 9.979164zm.904268 14.196116c3.910968-3.911173 10.222977-3.940439 14.133939-.029265 3.910962 3.911176 3.940225 10.282062.029263 14.193238-3.910965 3.91117-10.281503 3.881908-14.192464-.029265-3.910959-3.911172-3.881699-10.223534.029262-14.134708z" filter="url(#q)" opacity=".5" transform="matrix(.98683 0 0 .98405 -49.34941 115.3279)"/>
  <path d="M65.980119-53.037487c-13.786661 13.787412-13.786661 36.19619 0 49.9836103C79.766782 10.73352 102.14508 10.70426 115.93173-3.0831477c6.21699-6.2173117 9.63083-14.1766873 10.242-22.2994743.00441-.058755-.00414-.116824-.00001-.175593-.00571-.115456.00669-.235749 0-.351168-.15046-2.598242-.55585-5.160637-1.19978-7.69654l47.41663-49.448802c.39026-.390287.75282-.811569 1.0242-1.258366 1.10121-1.113587 1.78503-2.696976 1.78503-4.477463l-.02926-15.656456c-.00001-3.38076-2.44998-6.11626-5.53068-6.11626l-10.54547 1.04547c0 .46101-.14424.90512-.49748 1.25838l-1.11197 1.11203h-5.03321c-.99912.00001-1.81431.81525-1.8143 1.81441l.05853 3.6873h-5.55993c-.27917.00001-.55474.09264-.79011.20486-.08296.03375-.15582.07039-.23409.11705-.0236.01591-.03575.04156-.05854.05853-.10009.06624-.17504.11653-.26335.20485l-3.33597 3.336156c-.04954.04954-.07446.1221-.11705.17558-.40146.33003-.67304.812445-.67304 1.375432l.02926 6.818606-6.02814 6.028468h-6.84749c-.9991 0-1.8143.815244-1.8143 1.814392v3.921431h-5.26731c-.99909.000002-1.8143.815253-1.8143 1.814394l.02927 8.164769-2.98481 2.98497c-.70645.706499-1.8394.677236-2.54587-.029265l-2.04839-2.048508c-1.14496-1.145028-2.33517-.766736-3.16038.05853l-5.64773 5.648029c-1.868335-.807305-3.788347-1.473994-5.735503-1.989979-.066648-.017663-.13812-.011945-.204839-.029266-10.526313-1.399799-21.560232 1.895726-29.643229 9.979164zm.904268 14.196116c3.910968-3.911173 10.222977-3.940439 14.133939-.029265 3.910962 3.911176 3.940225 10.282062.029263 14.193238-3.910965 3.91117-10.281503 3.881908-14.192464-.029265-3.910959-3.911172-3.881699-10.223534.029262-14.134708z" filter="url(#r)" opacity=".80748668" transform="matrix(.98683 0 0 .98405 -49.34941 113.3279)"/>
  <path fill="#bbb" d="M15.761949 61.13652c-13.6051323 13.567461-13.6051323 35.618752 0 49.18622 13.605134 13.56745 35.688777 13.53865 49.293898-.0288 6.135131-6.11813 9.504021-13.950529 10.107143-21.943733.004352-.057818-.004085-.11496-.000009-.172792-.005635-.113614.006602-.231988 0-.345566-.148479-2.556792-.548531-7.078309-1.183983-9.573756l47.792292-47.659946c.38512-.384061.74291-.798622 1.01072-1.238292 1.08671-1.095822 1.76152-2.653951 1.76152-4.406034l-.02887-15.4066863c-.00001-3.3268267-2.41772-6.0186873-5.45786-6.0186873l-11.40662 2.0287901c0 .4536555-.14234.8906806-.49093 1.238305l-1.09732 1.0942898h-4.96694c-.98597.0000099-1.790423.8022443-1.790413 1.7854647l.057759 3.628477h-5.486722c-.275494.000009-.547436.091162-.779707.201591-.081867.033212-.153768.069267-.231007.115183-.02329.015656-.03528.040897-.05777.057596-.098772.065184-.172735.114671-.259882.201582l-3.292045 3.28293c-.048888.048753-.07348.120153-.115509.172784-.396174.324768-.664178.799484-.664178 1.353489l.028874 6.709829-5.948767 5.932296h-6.757329c-.985945 0-1.790411.802238-1.790411 1.785447v3.858872h-5.197956c-.985935.000002-1.790411.802248-1.790411 1.785449l.028885 8.034517-2.945509 2.937351c-.697148.695228-1.815181.666432-2.512349-.028798l-2.021418-2.015829c-1.129885-1.126761-2.304423-.754504-3.118768.057597l-5.573366 5.557926c-1.843735-.794426-3.738466-1.45048-5.659984-1.958233-.06577-.017381-.136301-.011755-.202142-.028799-10.387713-1.377468-21.276348 1.865483-29.252916 9.819966zm.892361 13.969645c3.859473-3.848778 10.088371-3.877577 13.947838-.028798 3.859466 3.848781 3.888344 10.118033.028877 13.966814-3.859469 3.848775-10.146126 3.819979-14.005591-.028799-3.859464-3.848777-3.830589-10.060438.028876-13.909217z"/>
  <path fill="url(#s)" d="M15.761949 61.13652c-13.6051323 13.567461-13.6051323 35.618752 0 49.18622 13.605134 13.56745 35.688777 13.53865 49.293898-.0288 6.135131-6.11813 9.504021-13.950529 10.107143-21.943733.004352-.057818-.004085-.11496-.000009-.172792-.005635-.113614.006602-.231988 0-.345566-.148479-2.556792-.548531-7.078309-1.183983-9.573756l47.792292-47.659946c.38512-.384061.74291-.798622 1.01072-1.238292 1.08671-1.095822 1.76152-2.653951 1.76152-4.406034l-.02887-15.4066863c-.00001-3.3268267-2.41772-6.0186873-5.45786-6.0186873l-11.40662 2.0287901c0 .4536555-.14234.8906806-.49093 1.238305l-1.09732 1.0942898h-4.96694c-.98597.0000099-1.790423.8022443-1.790413 1.7854647l.057759 3.628477h-5.486722c-.275494.000009-.547436.091162-.779707.201591-.081867.033212-.153768.069267-.231007.115183-.02329.015656-.03528.040897-.05777.057596-.098772.065184-.172735.114671-.259882.201582l-3.292045 3.28293c-.048888.048753-.07348.120153-.115509.172784-.396174.324768-.664178.799484-.664178 1.353489l.028874 6.709829-5.948767 5.932296h-6.757329c-.985945 0-1.790411.802238-1.790411 1.785447v3.858872h-5.197956c-.985935.000002-1.790411.802248-1.790411 1.785449l.028885 8.034517-2.945509 2.937351c-.697148.695228-1.815181.666432-2.512349-.028798l-2.021418-2.015829c-1.129885-1.126761-2.304423-.754504-3.118768.057597l-5.573366 5.557926c-1.843735-.794426-3.738466-1.45048-5.659984-1.958233-.06577-.017381-.136301-.011755-.202142-.028799-10.387713-1.377468-21.276348 1.865483-29.252916 9.819966zm.892361 13.969645c3.859473-3.848778 10.088371-3.877577 13.947838-.028798 3.859466 3.848781 3.888344 10.118033.028877 13.966814-3.859469 3.848775-10.146126 3.819979-14.005591-.028799-3.859464-3.848777-3.830589-10.060438.028876-13.909217z" opacity=".28877007"/>
  <path fill="url(#t)" d="M15.761949 61.13652c-13.6051323 13.567461-13.6051323 35.618752 0 49.18622 13.605134 13.56745 35.688777 13.53865 49.293898-.0288 6.135131-6.11813 9.504021-13.950529 10.107143-21.943733.004352-.057818-.004085-.11496-.000009-.172792-.005635-.113614.006602-.231988 0-.345566-.148479-2.556792-.548531-8.078309-1.183983-10.573757l47.792292-47.659946c.38512-.38406.74291-.798622 1.01072-1.238291 1.08671-1.095822 1.76152-2.653951 1.76152-4.406034l-.02887-15.4066847c-.00001-3.3268267-2.41772-6.0186873-5.45786-6.0186873l-11.40662 3.0287885c0 .4536555-.14234.8906806-.49093 1.238305l-1.09732 1.0942898h-4.96694c-.98597.0000099-1.790423.8022443-1.790413 1.7854647l.057759 3.628477h-5.486722c-.275494.000009-.547436.091162-.779707.201591-.081867.033212-.153768.069267-.231007.115183-.02329.015656-.03528.040897-.05777.057596-.098772.065184-.172735.114671-.259882.201582l-3.292045 3.282935c-.048888.048749-.07348.120152-.115509.172779-.396174.324765-.664178.799484-.664178 1.353489l.028874 6.709829-5.948767 5.932296h-6.757329c-.985945 0-1.790411.802238-1.790411 1.785447v3.858872h-5.197956c-.985935.000002-1.790411.802248-1.790411 1.785449l.028885 8.034517-2.945509 2.937351c-.697148.695228-1.815181.666432-2.512349-.028798l-2.021418-2.015829c-1.129885-1.126761-2.304423-.754504-3.118768.057597l-5.573366 5.557926c-1.843735-.794426-3.738466-1.45048-5.659984-1.958233-.06577-.017381-.136301-.011755-.202142-.028799-10.387713-1.377468-21.276348 1.865483-29.252916 9.819966zm.892361 13.969645c3.859473-3.848778 10.088371-3.877577 13.947838-.028798 3.859466 3.848781 3.888344 10.118033.028877 13.966814-3.859469 3.848775-10.146126 3.819979-14.005591-.028799-3.859464-3.848777-3.830589-10.060438.028876-13.909217z"/>
  <path fill="url(#u)" d="M15.761949 61.13652c-13.6051323 13.567461-13.6051323 35.618752 0 49.18622 13.605134 13.56745 35.688777 13.53865 49.293898-.0288 6.135131-6.11813 9.504021-13.950529 10.107143-21.943733.004352-.057818-.004085-.11496-.000009-.172792-.005635-.113614.006602-.231988 0-.345566-.148479-2.556792-.548531-8.078309-1.183983-10.573757l47.792292-47.659946c.38512-.38406.74291-.798622 1.01072-1.238291 1.08671-1.095822 1.76152-2.653951 1.76152-4.406034l-.02887-15.4066847c-.00001-3.3268267-2.41772-6.0186873-5.45786-6.0186873l-11.40662 3.0287885c0 .4536555-.14234.8906806-.49093 1.238305l-1.09732 1.0942898h-4.96694c-.98597.0000099-1.790423.8022443-1.790413 1.7854647l.057759 3.628477h-5.486722c-.275494.000009-.547436.091162-.779707.201591-.081867.033212-.153768.069267-.231007.115183-.02329.015656-.03528.040897-.05777.057596-.098772.065184-.172735.114671-.259882.201582l-3.292045 3.282935c-.048888.048749-.07348.120152-.115509.172779-.396174.324765-.664178.799484-.664178 1.353489l.028874 6.709829-5.948767 5.932296h-6.757329c-.985945 0-1.790411.802238-1.790411 1.785447v3.858872h-5.197956c-.985935.000002-1.790411.802248-1.790411 1.785449l.028885 8.034517-2.945509 2.937351c-.697148.695228-1.815181.666432-2.512349-.028798l-2.021418-2.015829c-1.129885-1.126761-2.304423-.754504-3.118768.057597l-5.573366 5.557926c-1.843735-.794426-3.738466-1.45048-5.659984-1.958233-.06577-.017381-.136301-.011755-.202142-.028799-10.387713-1.377468-21.276348 1.865483-29.252916 9.819966zm.892361 13.969645c3.859473-3.848778 10.088371-3.877577 13.947838-.028798 3.859466 3.848781 3.888344 10.118033.028877 13.966814-3.859469 3.848775-10.146126 3.819979-14.005591-.028799-3.859464-3.848777-3.830589-10.060438.028876-13.909217z" opacity=".79144383"/>
  <path fill="url(#v)" d="M15.083112 57.258577c-13.5024301 13.465044-13.5024301 35.349875 0 48.814933 13.502433 13.46503 35.419376 13.43645 48.921797-.02859 6.088819-6.071945 9.432278-13.845221 10.030842-21.778086.004322-.057381-.004056-.114092-.00001-.171487-.005585-.112757.006553-.230237 0-.342958-.147354-2.537491-.544386-5.039974-1.175042-7.516584l47.431521-47.300173c.38222-.381162.7373-.792594 1.00308-1.228944 1.07851-1.08755 1.74824-2.633917 1.74824-4.372774l-.02866-15.2903834c-.00001-3.3017138-2.39948-5.9732538-5.41666-5.9732538l-11.32051.0285767c0 .450231-.14127.8839596-.48722 1.2289566l-1.08905 1.0860336H99.772c-.978524.0000099-1.776911.7961826-1.776901 1.7719833l.057325 3.6010905h-5.445305c-.273412.0000098-.543301.0904733-.773815.2000666-.081256.0329659-.152614.0687459-.229271.1143169-.023112.015538-.035013.040582-.057325.057163-.098032.064691-.171433.113805-.257929.200057l-3.267187 3.25814c-.048522.048386-.072927.119247-.11464.17148-.393184.322315-.659165.793447-.659165 1.343271l.028658 6.659177-5.903867 5.887515h-6.70632c-.978494 0-1.776891.796183-1.776891 1.77197v3.829742h-5.158719c-.978494.000002-1.776892.796192-1.776892 1.771971l.028668 7.973867-2.923276 2.915177c-.691888.68998-1.801483.6614-2.493381-.028581l-2.006163-2.000612c-1.121358-1.118255-2.287025-.748808-3.095231.057162l-5.531288 5.515971c-1.82982-.788429-3.71025-1.43953-5.617263-1.943451-.065274-.01725-.135272-.011666-.200616-.028581-10.309298-1.367071-21.115738 1.8514-29.032094 9.745838zm.885626 13.864192c3.830338-3.819725 10.012217-3.848307 13.842549-.028581 3.830332 3.819727 3.858992 10.041654.02866 13.861382-3.830336 3.819721-10.069537 3.791143-13.899868-.028582-3.830329-3.819723-3.801672-9.984494.028659-13.804219z"/>
  <path fill="url(#w)" d="M51.541524 47.874385c.064865.097761.137693.193205.224189.279454l7.173921 7.154061c.691908.689997 1.802144.717943 2.494052.027946L114.84577 2.0716249l-8.54705.0279469c0 .4502212-.15848.8846189-.50442 1.2296061l-1.09291 1.0898813h-4.932074c-.978504-.0000099-1.765454.7847676-1.765444 1.7605585l.028016 3.6049774h-5.436483c-.273412 0-.52612.0860353-.756634.1956286-.081256.0329653-.147502.0661973-.224169.1117683-.023122.015548-.03375.039312-.056062.055913-.098032.064682-.193725.137295-.280221.223546l-3.250677 3.241677c-.048533.048396-.070391.115449-.112105.167682-.393184.322315-.672546.791567-.672546 1.341385l.028016 6.67899-5.88485 5.868566h-6.725553c-.978495 0-1.765454.784782-1.765454 1.76057v3.856484l-5.156262.000002c-.978484 0-1.765454.784789-1.765454 1.760569v7.992428l-2.914404 2.906337c-.691898.689983-1.802164.662038-2.494063-.027944l-2.017659-2.012081c-1.121358-1.118254-2.274334-.750079-3.08254.055891l-3.923244 3.912378z"/>
  <path fill="url(#x)" d="M67.459861 54.524229c-.691908.689996-4.230583 4.223073-2.700597 5.748829l.508367.506961c1.432911 1.428942 5.099065-1.832846 5.790973-2.522842L122.77072 6.6882224c-.41886-1.8712933-1.64878-3.3690818-3.2507-4.0800459L67.459861 54.524229z"/>
  <path fill="url(#y)" d="M69.253341 56.312743c-.691908.689997-5.439108 3.017903-4.204955 4.248639l.219245.218637c1.414724 1.410808 5.099065-1.832846 5.790973-2.522842L122.86039 6.5987922c-.41884-1.8712933-1.64877-3.3690817-3.25069-4.080036L69.253341 56.312743z"/>
  <path fill="url(#z)" d="M51.541524 47.874385c.064865.097761.137693.193205.224189.279454l7.173921 7.154061c.691908.689997 1.802144.717943 2.494052.027946L114.84577 2.0716249l-8.54705.0279469c0 .4502212-.15848.8846189-.50442 1.2296061l-1.09291 1.0898813h-4.932074c-.978504-.0000099-1.765454.7847676-1.765444 1.7605585l.028016 3.6049774h-5.436483c-.273412 0-.52612.0860353-.756634.1956286-.081256.0329653-.147502.0661973-.224169.1117683-.023122.015548-.03375.039312-.056062.055913-.098032.064682-.193725.137295-.280221.223546l-3.250677 3.241677c-.048533.048396-.070391.115449-.112105.167682-.393184.322315-.672546.791567-.672546 1.341385l.028016 6.67899-5.88485 5.868566h-6.725553c-.978495 0-1.765454.784782-1.765454 1.76057v3.856484l-5.156262.000002c-.978484 0-1.765454.784789-1.765454 1.760569v7.992428l-2.914404 2.906337c-.691898.689983-1.802164.662038-2.494063-.027944l-2.017659-2.012081c-1.121358-1.118254-2.274334-.750079-3.08254.055891l-3.923244 3.912378z"/>
  <path fill="url(#A)" d="M18.923502 63.260409c-.228966.251625-.412065.542813-.63051.800246l.630509.628764.515873-1.886292-.02866-.028581c-.157531.165273-.334366.317893-.487212.485863zm1.547615-1.54333-.229278.857406 1.662253 1.657651.630508-2.229255-1.11772-1.114627c-.31636.275425-.638618.537371-.945763.828825zm1.518953-1.286108.745148.743086.458553-1.714813c-.418711.31027-.798118.635896-1.203701.971727zm-4.15563 4.201288c-.222964.276515-.448935.540355-.659169.828825.354301-.162686.725028-.268206 1.089062-.400122l-.429893-.428703zm6.305096-5.830359-.085981.257222 1.375658 1.371849.601851-2.257836-.343914-.342961c-.522046.309738-1.041109.626019-1.547614.971726zm-4.098312 4.60141-.343914 1.200369c.427071-.10477.856209-.192641 1.289679-.257222l-.945765-.943147zm3.811715-3.515363-.544531 1.857713 1.404317 1.400429.487213-1.914872-1.346999-1.34327zm3.238529-2.886599-.257938.943147 1.690913 1.68623.487211-1.857712-1.146381-1.143207c-.263017.126199-.513736.236807-.773805.371542zm1.461634-.714504.659169.657345.286595-1.028888c-.308479.125271-.640625.234986-.945764.371543zm-1.920188 2.486476-.601851 2.257835 1.662253 1.657652.60185-2.257836-1.662252-1.657651zm-3.525121 3.801166-.429893 1.629069c.574569-.017088 1.146751.004851 1.719571.057161l.085978-.314382-1.375656-1.371848zm7.25086-7.002148-.544532 1.972034 1.375657 1.371849.60185-2.257835-1.17504-1.171788c-.094011.033593-.164186.051123-.257935.08574zm1.031742-.342962.63051.628764.229275-.914566c-.287704.083721-.574027.19273-.859785.285802zm-5.588608 6.602025-.515871 1.886292.745147.743084c.367392.077247.727607.179182 1.089062.285803l.372574-1.228949-1.690912-1.68623zm7.27952-7.145048-.487211 1.743392 1.662252 1.657649.544529-1.857711-1.576273-1.57191c-.053659.013542-.089694.014716-.143297.02858zm-3.496462 3.658264-.487212 1.857713 1.375658 1.371849.487211-1.857713-1.375657-1.371849zm4.499546-3.858326.917105.914566.315254-1.171787c-.405533.070714-.829001.168499-1.232359.257221zm-1.690912 2.77228-.63051 2.229254 1.690912 1.686232.60185-2.257836-1.662252-1.65765zm-3.496462 3.772584-.630512 2.229254 1.404318 1.40043.573191-2.286415-1.346997-1.343269zm7.19354-6.887826-.515871 1.829132 1.404317 1.40043.573189-2.286416-1.031742-1.028887c-.148456.019239-.28161.064105-.429893.085741zm1.375658-.171481.315254.314382.085979-.371541c-.143481.011404-.257822.043527-.401233.057159zm-5.903863 6.344802-.487211 1.857713 1.662252 1.65765.487212-1.857712-1.662253-1.657651zm-3.496463 3.772586-.257934.885985c.530119.18586 1.038437.4352 1.547613.685925l.05732-.228642-1.346999-1.343268zm7.308179-7.287949-.51587 1.886292 1.375657 1.371848.487212-1.91487-1.346999-1.34327zm3.267187-2.91518-.257936 1.000307 1.662252 1.657651.487212-1.914873-.802466-.800245c-.35453.004964-.734347.038545-1.089062.05716zm-7.795391 9.088501-.60185 2.257835 1.662252 1.657651.630511-2.229255-1.690913-1.686231zm7.308179-7.287949-.60185 2.257836 1.662253 1.65765.63051-2.229253-1.690913-1.686233zm-3.525121 3.801166-.601851 2.257835 1.375658 1.37185.601849-2.257836-1.375656-1.371849zm6.878285-5.601717-.143297.543023 1.375658 1.37185.487212-1.800552c-.574267-.066257-1.141333-.084721-1.719573-.114321zm-4.155631 4.887212-.54453 1.857712 1.690911 1.68623.515871-1.886291-1.662252-1.657651zm3.783057-3.543944-.51587 1.886294 1.404316 1.400427.487212-1.914871-1.375658-1.37185zm-7.308177 7.34511-.515872 1.829132 1.404316 1.400428.458552-1.886292-1.346996-1.343268zm10.088152-8.459737-.573191 2.286415 1.662253 1.657651.57319-2.286415-1.662252-1.657651zm-7.30818 7.345109-.60185 2.257834 1.662253 1.657652.601851-2.257834-1.662254-1.657652zm-3.496461 3.772584-.601851 2.257835 1.375657 1.37185.601851-2.257835-1.375657-1.37185zm7.308179-7.287947-.601851 2.257834 1.375658 1.371849.60185-2.257835-1.375657-1.371848zm4.671503-3.686845.745147.743084.114638-.571601c-.28551-.063058-.572368-.117841-.859785-.171483zm-9.314347 10.260288-.48721 1.857713 1.662251 1.65765.515871-1.829133-1.690912-1.68623zm7.336839-7.316529-.515871 1.886294 1.662252 1.65765.515872-1.886293-1.662253-1.657651zM12.188513 88.153755c.068705.306541.120952.639104.200617.943146l.143297-.600184-.343914-.342962zm27.398505-27.15118-.515869 1.886293 1.375657 1.371848.51587-1.886291-1.375658-1.37185zm7.078904-6.373382-.257935.943145 1.375657 1.37185.51587-1.886293c-.533957-.170463-1.090568-.292768-1.633592-.428702zM13.134278 89.096901l-.372575 1.286108c.206145.646767.459253 1.284086.716489 1.914874l.716488.714503.601851-2.257833-1.662253-1.657652zm21.953196-21.892425-.63051 2.229255 1.690912 1.686231.601851-2.257835-1.662253-1.657651zm7.308179-7.287949-.63051 2.229255 1.690912 1.686231.601851-2.257834-1.662253-1.657652zm3.783057-3.543943-.60185 2.257835 1.404317 1.400429.57319-2.286416-1.375657-1.371848zm-7.308179 7.345109-.630509 2.229255 1.404316 1.400429.57319-2.286416-1.346997-1.343268zM14.624572 89.554184l.372574.371542.02866-.085741c-.133024-.092535-.270764-.188178-.401234-.285801zm34.248132-33.924685-.487209 1.914873 1.66225 1.657649.48721-1.91487-1.662251-1.657652zm-7.308178 7.345109-.51587 1.886293 1.662251 1.65765.515871-1.886292-1.662252-1.657651zm3.783057-3.543944-.487211 1.914873 1.375658 1.371849.487211-1.914873-1.375658-1.371849zm-7.308177 7.34511-.487214 1.857711 1.375658 1.371849.458552-1.886292-1.346996-1.343268zm11.922366-11.089115.831121.828826.085983-.428703c-.309935-.13715-.602738-.2755-.917104-.400123zM15.684976 90.268688l-.08598.257222 1.375658 1.371849.200616-.828825c-.511919-.235059-1.003886-.50095-1.490294-.800246zm25.134402-24.607542-.601849 2.257834 1.662252 1.657651.63051-2.229253-1.690913-1.686232zm7.336839-7.316529-.573191 2.286415 1.633594 1.629071.601854-2.257835-1.662257-1.657651zM15.36972 91.326155l-.601851 2.257835 1.375659 1.37185.63051-2.229255-1.404318-1.40043zm21.953197-21.892424-.601851 2.257835 1.375658 1.37185.60185-2.257837-1.375657-1.371848zm7.308179-7.287949-.601851 2.257834 1.375658 1.37185.630511-2.229254-1.404318-1.40043zm-9.171049 9.317143c.138132.249304.279387.487571.401234.743084l.057319-.285801-.458553-.457283zm16.077994-15.118921-.171956.743084 1.375655 1.37185.315254-1.286108c-.505269-.28363-.998685-.581321-1.518953-.828826zM40.016912 68.747807l-.487212 1.857711 1.662252 1.657651.487213-1.857711-1.662253-1.657651zm7.336839-7.316529-.515873 1.886292 1.662253 1.65765.487213-1.914872-1.633593-1.62907zm3.783053-3.543944-.515867 1.886293 1.404313 1.400428.487219-1.914872-1.375665-1.371849zm-36.56955 36.525482-.085979.142901c.364925.695161.800342 1.364117 1.232359 2.029193l.229277-.800245-1.375657-1.371849zM36.52045 72.520392l-.200617.714504c.260889.684066.451492 1.376714.60185 2.086354l.458552.457282.487212-1.914872-1.346997-1.343268zm7.308179-7.287949-.544531 1.857712 1.404316 1.400428.515872-1.88629-1.375657-1.37185zM17.8631 91.354736l-.286596 1.143207 1.662252 1.657651.487212-1.857711-.487212-.485864c-.458144-.129864-.930032-.28046-1.375656-.457283zm-.515872 1.943452-.60185 2.257836 1.662252 1.65765.601851-2.257834-1.662253-1.657652zm21.953196-21.892425-.60185 2.257836 1.662252 1.657651.60185-2.257835-1.662252-1.657652zm7.308179-7.287948-.573189 2.286416 1.633591 1.62907.601851-2.257835-1.662253-1.657651zm3.783054-3.543944-.573193 2.286415 1.375665 1.37185.60185-2.257835-1.404322-1.40043zm-7.308176 7.345109-.60185 2.257835 1.375658 1.37185.601849-2.257835-1.375657-1.37185zm10.661345-10.346028-.372579 1.51475 1.633594 1.62907.544534-1.972031c-.577277-.41686-1.202021-.80812-1.805549-1.171789zm-33.159072 34.55345 1.318338 1.314688.315256-1.114629c-.544605-.033466-1.095085-.104096-1.633594-.200059zm-4.069653 4.229867-.257935 1.057466c.484578.687365.988216 1.354065 1.547614 2.000614l.401234-1.371849-1.690913-1.686231zm21.953197-21.892425-.515872 1.886294 1.662252 1.657649.544532-1.857711-1.690912-1.686232zm7.308178-7.287948-.487211 1.914872 1.633593 1.629071.544531-1.857712-1.690913-1.686231zm7.336843-7.316528-.487219 1.914871 1.633593 1.629071.544535-1.857712-1.690909-1.68623zm-32.81516 33.010118-.487212 1.857713 1.375657 1.371849.515871-1.829133-1.404316-1.400429zm21.953197-21.892425-.487213 1.857712 1.375657 1.371849.515871-1.829132-1.404315-1.400429zm7.336838-7.316528-.515871 1.886292 1.375659 1.371849.515867-1.886293-1.375655-1.371848zM37.09364 76.521618c.005859.047136.023279.095719.02866.142901l.02866-.08574-.05732-.057161zm.659169.657344-.54453 1.972033c-.006394.103444-.019995.211071-.028659.314382l1.633591 1.629071.601851-2.257834-1.662253-1.657652zm7.308179-7.287949-.601851 2.257835 1.662253 1.657651.601851-2.257834-1.662253-1.657652zm7.336841-7.316528-.60185 2.257834 1.662251 1.657652.60185-2.257835-1.662251-1.657651zM19.611331 95.556023l-.630511 2.229255 1.404317 1.400429.601851-2.257834-1.375657-1.37185zm21.953195-21.892424-.630509 2.229255 1.404316 1.400429.601851-2.257835-1.375658-1.371849zm7.308179-7.287949-.630509 2.229254 1.404313 1.400429.60185-2.257834-1.375654-1.371849zm7.250862-7.173629-.544534 2.086355 1.404323 1.400429.601849-2.257834-.458551-.457284c-.323958-.275-.668728-.51516-1.003087-.771666zM22.935835 92.355043l-.458553 1.657651 1.690912 1.68623.601852-2.257835-1.089063-1.086047c-.248719.010061-.496276.002952-.745148.000001zm1.719571-.057161.315256.314382.114637-.400122c-.144297.020326-.28514.069858-.429893.08574zm-2.37874 2.543637-.487211 1.857713 1.662252 1.657651.487211-1.857713-1.662252-1.657651zm21.953196-21.892425-.458552 1.886292 1.633593 1.629072.487212-1.857713-1.662253-1.657651zm7.336836-7.316528-.487209 1.914872 1.633594 1.629072.515866-1.886294-1.662251-1.65765zm3.783064-3.543944-.487219 1.914873 1.404323 1.400428.487209-1.914872-1.404313-1.400429zM18.780204 98.614104l-.401233 1.429006c.234643.25352.469769.46847.716488.71451.217557.21695.435765.44975.659169.65734l.401233-1.429007-1.375657-1.371849zm18.284778-18.234161c-.098677.658653-.266314 1.301443-.458554 1.943453l1.461637 1.45759.515871-1.886294-1.518954-1.514749zm3.668419-3.658264-.515872 1.886293 1.375657 1.371849.515871-1.886293-1.375656-1.371849zm7.308178-7.287948-.51587 1.886292 1.375656 1.371849.515873-1.886292-1.375659-1.371849zm-22.153813 22.66409-.315254 1.114627 1.375657 1.371849.515871-1.886293-.802466-.800246c-.258513.066935-.512568.147932-.773808.200063zm-4.327588 5.401655-.60185 2.257835 1.662253 1.657649.63051-2.229252-1.690913-1.686232zm21.953196-21.892425-.573191 2.286416 1.633594 1.629071.63051-2.229255-1.690913-1.686232zm14.645014-14.604477-.573183 2.286415 1.633594 1.629071.630507-2.229254-1.690918-1.686232zM27.46404 91.669118l.229276.22864.085979-.314382c-.103626.036188-.210974.052031-.315255.085742zm23.386168-23.321435-.601849 2.257835 1.633593 1.629071.630517-2.229255-1.662261-1.657651zm-25.506973 25.66501-.60185 2.257836 1.375657 1.371849.63051-2.229255-1.404317-1.40043zm14.645017-14.604476-.60185 2.257835 1.375658 1.371849.63051-2.229254-1.404318-1.40043zm7.308179-7.287948-.60185 2.257834 1.375658 1.37185.630509-2.229255-1.404317-1.400429zm7.336841-7.31653-.60185 2.257835 1.404313 1.40043.60185-2.257835-1.404313-1.40043zM36.377153 83.123641c-.188724.515834-.4081 1.019456-.659169 1.514751l-.143298.543022 1.662253 1.657652.630509-2.229254-1.490295-1.486171zm-7.795391 8.173933-.315256 1.171789 1.662254 1.657652.630509-2.229256-1.060403-1.057466c-.297419.150087-.611869.329496-.917104.457281zm1.576273-.828824.601851.600185.315255-1.171789c-.302381.206553-.602958.391104-.917106.571604zm4.27027-3.801165c-.10625.142122-.174281.318344-.286596.457282l.143298.142901.143298-.600183zm-2.235444 2.400735 1.26102 1.25753.63051-2.229257-.458552-.457282c-.178428.199214-.35278.408963-.544533.600185-.295701.294883-.574053.565538-.888445.828824zm-11.435149 11.51782-.401235 1.37185c.567271.49573 1.148723.96243 1.748231 1.40042l.315256-1.11462-1.662252-1.65765zm7.308178-7.287952-.515871 1.886293 1.633593 1.62907.057318-.057159.487212-1.800553-1.662252-1.657651zm7.308179-7.287947-.487211 1.857712 1.633592 1.62907.057319-.05716.458553-1.771973-1.662253-1.657649zm7.336838-7.316529-.515872 1.886294 1.633593 1.62907.05732-.057162.487211-1.800551-1.662252-1.657651zm14.645018-14.604476-.515867 1.886292 1.662251 1.65765.515867-1.886291-1.662251-1.657651zm-7.30818 7.345109-.544534 1.857711 1.633593 1.62907.057325-.057159.48721-1.800552-1.633594-1.62907zm3.754397-3.572525-.515867 1.886293 1.43297 1.429009.487219-1.914873-1.404322-1.400429zM24.540769 97.099354l-.515872 1.829132 1.404318 1.400434.48721-1.857717-1.375656-1.371849zm7.336838-7.316528-.544531 1.857712 1.404317 1.40043.515871-1.886294-1.375657-1.371848zm7.30818-7.28795-.544532 1.857714 1.404317 1.40043.515872-1.886295-1.375657-1.371849zm7.308178-7.287947-.515872 1.829132 1.404318 1.400429.48721-1.857712-1.375656-1.371849zM27.320742 95.984726l-.60185 2.257836.515872.514443c.070919-.112142.188447-.187927.286595-.285802l1.146381-1.143209-1.346998-1.343268zm7.336839-7.316529-.60185 2.257836.515871.514444 1.432977-1.429011-1.346998-1.343269zm7.308178-7.287948-.573189 2.286416.487211.485863 1.432976-1.429009-1.346998-1.34327zm14.645018-14.604476-.573192 2.286415.487209.485863.687833-.685925c.292418-.291605.624152-.43526 1.003086-.485863l-1.604936-1.60049zm-7.308179 7.345108-.60185 2.257835.487212.485864 1.432977-1.42901-1.318339-1.314689zm-25.478317 25.63643-.60185 2.257839 1.375657 1.37185.60185-2.25784-1.375657-1.371849zm7.308178-7.287948-.601849 2.257836.372573.371541 1.432976-1.429009-1.2037-1.200368zm7.308179-7.287949-.601849 2.257836.372573.371542 1.432976-1.42901-1.2037-1.200368zm7.336838-7.316528-.601849 2.257837.372572.371541 1.432978-1.42901-1.203701-1.200368zm7.308175-7.287948-.601839 2.257835.372569.371542 1.43297-1.429009-1.2037-1.200368zm7.30818-7.230788-.573182 2.172095 1.404312 1.400428.458552-1.886292c-.40249-.587821-.833233-1.127084-1.289682-1.686231zM26.489616 99.042807l-.487211 1.857713 1.662252 1.65765.315255-1.05747-.487212-.48586c-.401681-.40057-.541557-.93706-.487212-1.457588l-.515872-.514445zm7.336839-7.316529-.171958.628764.401234-.400122-.229276-.228642zm7.308179-7.287949-.143298.600185.372574-.371544-.229276-.228641zm14.645012-14.604476-.143288.600183.372569-.371542-.229281-.228641zm-7.308174 7.345109-.143298.543024.343914-.342963-.200616-.200061zM22.993154 102.81539l-.257934 1.00031c.485029.33246.959101.64715 1.461634.94314l.200617-.54302-1.404317-1.40043zm7.308179-7.287947-.057319.228642.143297-.142902-.085978-.08574zm7.30818-7.287948-.057321.228641.143298-.142901-.085977-.08574zm7.336838-7.316528-.057321.228641.143298-.1429-.085977-.085741zm7.30818-7.287948-.057325.22864.143298-.1429-.085973-.08574zm7.336837-7.316529-.515867 1.886292.659165.657344.745147.743085.515867-1.886292-1.404312-1.400429zm-33.789581 35.41085-.630509 2.22926 1.690908 1.68623.601854-2.25783-1.662253-1.65766zm36.42626-35.868133-.429894 1.62907 1.662251 1.657646.200614-.714498c-.420983-.877307-.908262-1.739646-1.432971-2.572218zM24.970662 104.78742l-.114639.34297c.275826.15168.579488.25911.859786.40012l-.745147-.74309zm36.598211-36.496897-.48721 1.914872 1.662251 1.657649.48721-1.914873-1.662251-1.657648zM28.553102 102.07231l-.286596 1.08604 1.375659 1.37185.286597-1.08604-1.37566-1.37185zm-.51587 1.88629-.601852 2.25783.20062.20007c.449393.18224.860632.35791 1.318334.51444l.487216-1.57191-1.404318-1.40043zm36.082337-34.439128-.057315.228638.286596.285804c-.071644-.179745-.153502-.336133-.229281-.514442zm-.286596 1.028886-.515867 1.886293 1.404323 1.400431.401227-1.600493c-.052964-.177952-.086516-.366135-.143299-.543024l-1.146384-1.143207zM30.530607 104.04434l-.286597 1.08604 1.662256 1.65766.458551-1.77198c-.488506.02198-.972368-.11227-1.346993-.48586l-.487217-.48586zm-.515872 1.88629-.315256 1.22895c.65228.2027 1.28376.36304 1.948853.51444l.028659-.08574-1.662256-1.65765zm33.732256-32.038394c-.050743.377884-.194791.708703-.48721 1.00031l-.687822.685924 1.318339 1.314691.573183-2.286419-.71649-.714506zm-30.46507 30.895184 1.289683 1.28612.601845-2.25785-.45855-.45728-1.146382 1.14321c-.098147.09788-.174141.21508-.286596.2858zm1.948849-1.94345.171962.17149.114634-.45729-.286596.2858zm1.719572-1.71481 1.432976 1.42901.601853-2.25783-.601853-.60019-1.432976 1.42901zm1.948847-1.943454.315256.314383.229275-.857407-.544531.543024zm1.719571-1.714811 1.289683 1.286113.601845-2.257842-.458551-.457281-1.432977 1.42901zm1.948848-1.943454.171962.171486.114634-.457287-.286596.285801zm1.690912-1.68623 1.432977 1.429009.601853-2.257832-.601854-.600187-1.432976 1.42901zm1.948848-1.943453.315256.314384.229276-.857408-.544532.543024zm1.719571-1.714812 1.318342 1.314693.601841-2.257841-.487209-.48586-1.432974 1.429008zm1.948851-1.943452.200613.200065.143298-.543027-.343911.342962zm1.719566-1.714811 1.43298 1.42901.60185-2.257834-.60185-.600187-1.43298 1.429011zm1.948847-1.943454.315264.314384.229271-.857407-.544535.543023zm1.690919-1.68623 1.31834 1.314691.601839-2.25784-.487209-.485861-1.43297 1.42901zm1.948847-1.943454.200613.200065.143298-.543026-.343911.342961zm1.719566-1.714811 1.461638 1.457589.60185-2.257833-.630508-.628765-1.43298 1.429009zm1.948847-1.943453.315264.314383.229271-.857407-.544535.543024zM36.520447 101.72934l-.515871 1.88629 1.633597 1.62908.54453-1.85771-1.662256-1.65766zm7.308179-7.287947-.487211 1.857712 1.633597 1.629075.51587-1.829132-1.662256-1.657655zm7.336836-7.316528-.515867 1.886293 1.633593 1.629075.544535-1.857714-1.662261-1.657654zm7.308179-7.287949-.487209 1.914873 1.633593 1.629075.515877-1.886293-1.662261-1.657655zm-25.50697 25.665014-.487211 1.85772.601845.60017c.320141.0551.595074.12801.917108.17149l.372576-1.22895-1.404318-1.40043zm7.336839-7.316527-.515871 1.886297 1.375651 1.37184.544537-1.857706-1.404317-1.400431zm7.30818-7.287949-.515872 1.886295 1.40431 1.400422.544538-1.857707-1.432976-1.42901zm7.308178-7.287948-.487209 1.857714 1.404303 1.400423.515886-1.829126-1.43298-1.429011zm7.336837-7.316528-.487209 1.914873 1.375645 1.371843.515887-1.886285-1.404323-1.400431zm3.209862-2.629384-.171956.743086.458562.45729c-.075572-.400379-.1926-.803822-.286606-1.200376zm-.401227 1.543334-.601859 2.257833 1.662261 1.657654.057315-.228639c-.03299-.946636-.09747-1.865179-.229281-2.800865l-.888436-.885983zM35.803961 104.44446l-.630512 2.22925 1.662256 1.65766.601853-2.25783-1.633597-1.62908zm7.336838-7.316528-.630511 2.229254 1.662256 1.657654.601853-2.257832-1.633598-1.629076zm7.308183-7.287947-.630518 2.229252 1.662261 1.657655.60185-2.257832-1.633593-1.629075zm7.308179-7.287948-.60186 2.257832 1.633604 1.629076.630507-2.229254-1.662251-1.657654zM39.587015 100.90052l-.630503 2.22926 1.404311 1.40042.601851-2.25783-1.375659-1.37185zm7.30818-7.287953-.630504 2.229261 1.432978 1.42901.601843-2.257841-1.404317-1.40043zm7.336841-7.316529-.630508 2.229262 1.43298 1.429011.60184-2.257842-1.404312-1.400431zm7.336846-7.259361-.630517 2.229254 1.404323 1.40043.60184-2.25784-1.375646-1.371844zm2.665328-.77167-.48721 1.914874 1.662252 1.657655.487219-1.914874-1.662261-1.657655zM34.972834 107.50254l-.200614.71451c.338254.03603.663421.06241 1.003079.08573l-.802465-.80024zm7.336838-7.31653-.51587 1.8863 1.633597 1.62907.51587-1.88629-1.633597-1.62908zm7.308179-7.287946-.515871 1.886294 1.633598 1.629075.515867-1.886294-1.633594-1.629075zm7.308179-7.287948-.458551 1.886292 1.633593 1.629075.48721-1.857712-1.662252-1.657655zM38.755889 103.95859l-.515871 1.8863 1.375659 1.37185.515871-1.88629-1.375659-1.37186zm7.308179-7.287944-.487211 1.857714 1.404318 1.40043.487211-1.857713-1.404318-1.400431zm7.336837-7.316527-.515867 1.886293 1.404313 1.400431.515877-1.886294-1.404323-1.40043zm7.336847-7.259361-.515877 1.886284 1.375655 1.371851.515877-1.886292-1.375655-1.371843zM41.564527 102.87255l-.601852 2.25784 1.633598 1.62907.630502-2.22926-1.662248-1.65765zm7.308179-7.287945-.601852 2.257832 1.633593 1.629076.630508-2.229262-1.662249-1.657646zm7.336834-7.316529-.573192 2.286413 1.633604 1.629075.601839-2.257842-1.662251-1.657646zm7.30818-7.287948-.60185 2.257833 1.662261 1.657655.60184-2.257841-1.662251-1.657647zM38.010744 106.64514l-.401231 1.71481c.578991.00121 1.140002-.02188 1.719568-.05716l.085981-.25722-1.404318-1.40043zm7.336839-7.316534-.601854 2.257834 1.404319 1.40043.630511-2.22925-1.432976-1.429014zm7.308174-7.287947-.601849 2.257833 1.404322 1.40043.630508-2.229253-1.432981-1.42901zm7.336837-7.259369-.601849 2.257833 1.375665 1.371851.630507-2.229253-1.404323-1.400431zM40.76206 105.95921l-.544529 1.85772.372574.37154c.563312-.06047 1.158775-.13367 1.71957-.22864l.085974-.37155-1.633589-1.62907zm7.308179-7.287946-.51587 1.829136 1.662248 1.65764.487207-1.85771-1.633585-1.629066zm7.336838-7.316528-.515867 1.886294 1.633584 1.629066.544534-1.857706-1.662251-1.657654zm7.30818-7.287948-.544535 1.857713 1.662251 1.657646.544535-1.857704-1.662251-1.657655zM44.545114 102.41527l-.544529 1.85771 1.432977 1.42901.515871-1.88629-1.404319-1.40043zm7.30818-7.287953-.544534 1.857715 1.43298 1.42901.515877-1.886294-1.404323-1.400431zm7.336837-7.259368-.515867 1.829134 1.404313 1.400431.487209-1.857714-1.375655-1.371851zm6.964268-5.973254-.171955.514439.085973.085739c.019006-.198797.071298-.40126.085982-.600178zM47.353753 101.32922l-.601852 2.25784 1.633589 1.62906.601853-2.25783-1.63359-1.62907zm7.308177-7.287944-.60185 2.257833 1.662251 1.657646.60185-2.257832-1.662251-1.657647zm7.308179-7.287948-.60185 2.257833 1.662251 1.657647.60185-2.257833-1.662251-1.657647zm-18.17014 18.348482-.601851 2.25783.372573.37154c.47167-.10216.936539-.18757 1.404321-.31438l.229275-.91456-1.404318-1.40043zm7.308178-7.287951-.60185 2.257831 1.404313 1.40043.601859-2.25783-1.404322-1.400431zm7.365494-7.28795-.60185 2.257834 1.375665 1.371851.60185-2.257834-1.375665-1.371851zm7.308179-7.287948-.601849 2.257833.372579.371542c.177659-.80319.295615-1.647363.401226-2.457897l-.171956-.171478zM46.522627 104.3873l-.515871 1.8863.601845.60018c.493217-.16648 1.004159-.31993 1.4903-.51444l.085973-.31439-1.662247-1.65765zm7.308182-7.287945-.487219 1.914874 1.633593 1.629071.515867-1.886298-1.662241-1.657647zm7.308179-7.287947-.487219 1.857713 1.662251 1.657646.48721-1.857713-1.662242-1.657646zM50.277026 100.87194l-.487219 1.85771 1.404322 1.40043.515867-1.82913-1.43297-1.42901zm7.365495-7.28795-.515877 1.886293 1.375665 1.371851.544524-1.857713-1.404312-1.400431zm7.308179-7.287949-.515877 1.886293.343921.342962c.197426-.603842.417885-1.217205.573182-1.829132l-.401226-.400123zM45.806132 107.10242l-.028661.08574c.023929-.00725.033404-.04984.05732-.05716l-.028659-.02858zm14.645014-14.604481-.630497 2.229263 1.261014 1.257524c.310004-.443857.606508-.887063.888446-1.343272l.143298-.48586-1.662261-1.657655zm-7.308179 7.345108-.630498 2.229263 1.232357 1.22894c.223192-.15462.439319-.32419.659165-.48586l.372579-1.34327-1.633603-1.629073zm-3.553773 3.715433-.63051 2.22925.143294.1429c.63978-.28447 1.239853-.60905 1.862881-.94314l.028657-.02858-1.404322-1.40043zm7.336836-7.25937-.630507 2.229253 1.404313 1.40043.601859-2.257833-1.375665-1.37185zm7.30818-7.287948-.630508 2.229253.114631.114318c.301586-.670167.584472-1.343846.83113-2.029188l-.315253-.314383zm-4.614185 6.544857-.515876 1.886294.487219.485868c.366707-.440414.724088-.887402 1.060401-1.343273l-1.031744-1.028889zm-7.308169 7.345111-.458562 1.60049c.426904-.24918.844167-.52709 1.261025-.80024l-.802463-.80025zm3.783054-3.543941-.515877 1.886291.372579.37154c.430259-.3631.818548-.77954 1.232357-1.17178l-1.089059-1.086051zm2.779968-1.114629-.200614.714507c.141907-.15525.320642-.299781.458552-.457283l-.257938-.257224z"/>
  <text xml:space="preserve" x="-50.395638" y="95.378082" fill="url(#B)" stroke-width=".08470561" font-family="Bitstream Vera Sans" font-size="5.41852188" font-weight="400" style="text-align:start;line-height:125%" transform="rotate(-44.92)"><tspan x="-50.395638" y="95.378082">OXYGEN</tspan></text>
  <path fill="none" stroke="url(#C)" stroke-dashoffset="4" stroke-linecap="round" stroke-linejoin="round" stroke-width="1.46731949" d="M15.083125 57.258571c-13.5024332 13.465054-13.5024332 35.349906 0 48.814959L123.0149 8.0434814c-.00001-3.3017138-1.98758-5.5625126-5.00478-5.5625126l-11.3205.0285767c0 .450231-.14126.8839596-.48722 1.2289566l-1.08905 1.0860336-4.92945.0000099c-.97851 0-1.776897.7961826-1.776887 1.7719734l.057325 3.6011h-5.445315c-.273412.00001-.543291.090474-.773805.200067-.081256.032956-.152614.068745-.229271.114317-.023122.015538-.035023.040572-.057325.057163-.098032.064681-.171443.113805-.257939.200057l-3.267187 3.25814c-.048512.048386-.072917.119247-.11463.17148-.393194.322315-.659175.793451-.659175 1.343272l.028658 6.659183-5.903857 5.88752h-6.70633c-.978494 0-1.776891.796184-1.776891 1.771971v3.829746h-5.158709c-.978494.000002-1.776902.796191-1.776892 1.771971l.028658 7.973874-2.923276 2.915179c-.691888.689982-1.801483.661403-2.493371-.028579l-2.006173-2.000615c-1.121358-1.118256-2.287025-.748809-3.095231.057161l-5.943172 5.105233c-1.829821-.78843-3.710252-1.439532-5.617265-1.943453-.065274-.01725-.135272-.011664-.200616-.028581-10.3093-1.367071-21.115743 1.851403-29.032099 9.745846zm.885625 13.864203c3.830338-3.819728 10.012219-3.848309 13.842551-.02858 3.830333 3.81973 3.858993 10.041661.028659 13.861392-3.830334 3.819725-10.069537 3.791148-13.899869-.028581-3.830329-3.819726-3.801673-9.984502.028659-13.804231z" opacity=".65163933"/>
  <path fill="none" stroke="url(#D)" stroke-dashoffset="4" stroke-linecap="round" stroke-linejoin="round" stroke-width=".58042383" d="M15.083125 57.258571c-13.5024332 13.465054-13.5024332 35.349906 0 48.814959L123.0149 8.0434814c-.00001-3.3017138-2.39947-5.9732538-5.41666-5.9732538l-11.3205.0285767c0 .450231-.14127.8839596-.48722 1.2289566l-1.08905 1.0860336h-4.92945c-.978514.0000099-1.776901.7961826-1.776891 1.7719833l.057325 3.6011003-5.445305-.0000098c-.273422.0000197-.543301.0904831-.773816.2000764-.081255.0329553-.152613.0687353-.229271.1143073-.023121.015548-.035022.040582-.057325.057173-.098032.064681-.171442.113795-.257938.200057l-3.267187 3.25814c-.048513.048385-.072917.119247-.114631.17148-.393183.322315-.659174.793447-.659174 1.343269l.028667 6.659184-5.903866 5.88752h-6.70633c-.978494 0-1.776882.796182-1.776892 1.77197v3.829746h-5.158709c-.978494.000003-1.776901.796192-1.776891 1.771972l.028658 7.973873-2.923276 2.915179c-.691888.689982-1.801483.661403-2.493372-.02858l-2.006172-2.000613c-1.121358-1.118257-2.287025-.748809-3.095231.05716l-5.531288 5.515977c-1.829821-.78843-3.710252-1.439532-5.617265-1.943453-.065274-.01725-.135272-.011664-.200616-.028581-10.3093-1.367071-21.115743 1.851403-29.032099 9.745846zm.885625 13.864203c3.830338-3.819728 10.012219-3.848309 13.842551-.02858 3.830333 3.81973 3.858993 10.041661.028659 13.861392-3.830334 3.819725-10.069537 3.791148-13.899869-.028581-3.830329-3.819726-3.801673-9.984502.028659-13.804231z" opacity=".84836067"/>
  <path fill="none" stroke="url(#E)" stroke-dashoffset="4" stroke-linecap="round" stroke-linejoin="round" stroke-width=".77751178" d="M15.165502 57.340719c-13.5024333 13.465056-13.5024333 35.349908 0 48.814961L123.09728 8.1256297c-.00001-3.3017139-2.39947-5.9732539-5.41666-5.9732539l-11.32051.0285767c.00001.450231-.14127.8839596-.48721 1.2289566l-1.08906 1.0860337h-4.929439c-.978514.0000098-1.776902.7961826-1.776902 1.7719832l.057326 3.6011004-5.445305-.0000099c-.273412.0000197-.543291.0904831-.773816.2000765-.081246.032956-.152604.068736-.229271.114317-.023111.015538-.035012.040572-.057325.057163-.098022.064681-.171432.113795-.257928.200057l-3.267187 3.25814c-.048523.048386-.072917.119247-.114631.17148-.393193.322315-.659175.793447-.659175 1.34327l.028658 6.659183-5.903857 5.88752h-6.706329c-.978494 0-1.776892.796184-1.776892 1.771971v3.829746h-5.158719c-.978494.000002-1.776891.796192-1.776891 1.771972l.028658 7.973873-2.923266 2.915179c-.691889.689982-1.801484.661403-2.493382-.028579l-2.006162-2.000615c-1.121358-1.118256-2.287025-.748809-3.095232.057161l-5.531287 5.515976c-1.829826-.78843-3.710257-1.439531-5.617269-1.943452-.065274-.01725-.135272-.011665-.200616-.028582-10.3093-1.36707-21.115743 1.851403-29.032099 9.745846zm.885625 13.864204c3.830337-3.819728 10.012219-3.84831 13.842551-.028581 3.830333 3.81973 3.858993 10.041663.028659 13.861393-3.830334 3.819725-10.069537 3.791148-13.899869-.028581-3.830329-3.819727-3.801673-9.984502.028659-13.804231z"/>
  <path fill="url(#F)" d="M96.268714 41.539527c-13.415887 13.378745-22.0668 26.929558-20.774394 32.063679l44.79237-44.668375c.38222-.381162.76394-.795882 1.02971-1.232231 1.07851-1.087543 1.72475-2.650972 1.72476-4.389824v-1.642974c-6.62505 2.531586-16.74243 9.867476-26.772446 19.869725z" opacity=".63934428"/>
  <path fill="none" stroke="url(#G)" stroke-width=".21088405" d="M68.576206 53.403492 119.39091 2.7294603"/>
  <path fill="none" stroke="url(#H)" stroke-width=".64619893" d="M72.436726 57.064583 123.25143 6.3905383"/>
  <path fill="url(#I)" d="M123.09728 8.1256297c-.00001-3.3017139-2.39947-5.9732539-5.41666-5.9732539l-11.32051.0285767c.00001.450231-.14127.8839596-.48721 1.2289566l-1.08906 1.0860337h-4.929439c-.978514.0000098-1.776902.7961826-1.776902 1.7719832l.057326 3.6011004-5.445305-.0000099c-.273412.0000197-.543291.0904831-.773816.2000765-.081246.032956-.152604.068736-.229271.114317-.023111.015538-.035012.040572-.057325.057163-.098022.064681-.171432.113795-.257928.200057l-3.267187 3.25814c-.048523.048386-.072917.119247-.114631.17148-.393193.322315-.659175.793447-.659175 1.34327l.028658 6.659183-5.903857 5.88752h-6.706329c-.978494 0-1.776892.796184-1.776892 1.771971v3.829746h-5.158719c-.978494.000002-1.776891.796192-1.776891 1.771972l.028658 7.973873-2.923266 2.915179c-.691889.689982-1.801484.661403-2.493382-.028579l-2.006162-2.000615c-1.121358-1.118256-2.287025-.748809-3.095232.057161L123.09728 8.1256297z"/>
  <path fill="url(#J)" d="M15.083112 57.258577c-13.5024301 13.465044-13.5024301 35.349875 0 48.814933 13.502433 13.46503 35.419376 13.43645 48.921797-.02859 6.088819-6.071945 9.432278-13.845221 10.030842-21.778086.004322-.057381-.004056-.114092-.00001-.171487-.005585-.112757.006553-.230237 0-.342958-.147354-2.537491-.544386-5.039974-1.175042-7.516584l47.431521-47.300173c.38222-.381162.7373-.792594 1.00308-1.228944 1.07851-1.08755 1.74824-2.633917 1.74824-4.372774l-.02866-15.2903834c-.00001-3.3017138-2.39948-5.9732538-5.41666-5.9732538l-11.32051.0285767c0 .450231-.14127.8839596-.48722 1.2289566l-1.08905 1.0860336H99.772c-.978524.0000099-1.776911.7961826-1.776901 1.7719833l.057325 3.6010905h-5.445305c-.273412.0000098-.543301.0904733-.773815.2000666-.081256.0329659-.152614.0687459-.229271.1143169-.023112.015538-.035013.040582-.057325.057163-.098032.064691-.171433.113805-.257929.200057l-3.267187 3.25814c-.048522.048386-.072927.119247-.11464.17148-.393184.322315-.659165.793447-.659165 1.343271l.028658 6.659177-5.903867 5.887515h-6.70632c-.978494 0-1.776891.796183-1.776891 1.77197v3.829742h-5.158719c-.978494.000002-1.776892.796192-1.776892 1.771971l.028668 7.973867-2.923276 2.915177c-.691888.68998-1.801483.6614-2.493381-.028581l-2.006163-2.000612c-1.121358-1.118255-2.287025-.748808-3.095231.057162l-5.531288 5.515971c-1.82982-.788429-3.71025-1.43953-5.617263-1.943451-.065274-.01725-.135272-.011666-.200616-.028581-10.309298-1.367071-21.115738 1.8514-29.032094 9.745838zm.885626 13.864192c3.830338-3.819725 10.012217-3.848307 13.842549-.028581 3.830332 3.819727 3.858992 10.041654.02866 13.861382-3.830336 3.819721-10.069537 3.791143-13.899868-.028582-3.830329-3.819723-3.801672-9.984494.028659-13.804219z"/>
  <path fill="url(#K)" d="m117.59375 2.0625-11.3125.03125c0 .4502309-.15405.873753-.5 1.21875l-1.09375 1.09375h-4.90625c-.978525.0000101-1.78126.8054493-1.78125 1.78125l.0625 3.59375h-5.46875c-.273408.0000096-.519486.1091567-.75.21875-.081255.032965-.173343.048179-.25.09375-.023111.015538-.040188.045919-.0625.0625-.098029.064691-.163504.101248-.25.1875l-3.25 3.28125c-.04852.048386-.083287.104017-.125.15625-.393182.322315-.65625.793927-.65625 1.34375l.03125 6.65625L81.375 27.6875h-6.71875c-.978494.000001-1.78125.774213-1.78125 1.75v3.84375h-5.15625c-.978489.000002-1.75.805471-1.75 1.78125v7.96875L63.0625 45.9375c-.691886.689979-1.808102.658731-2.5-.03125l-2-2c-1.121358-1.118259-2.285544-.74347-3.09375.0625L50 49.4375v.90625c11.336518 4.254647 20.021917 13.918857 22.9375 25.84375l47.34375-47.25c.38222-.38116.73422-.7824 1-1.21875 1.07851-1.087549 1.75-2.636143 1.75-4.375L123 8.03125c-.00001-3.3017135-2.38907-5.96875-5.40625-5.96875zm-43.625 81.0625c.025815.536538.027646 1.082706.03125 1.625.0141-.157853.019329-.310761.03125-.46875.004324-.05738-.004046-.130105 0-.1875-.005586-.112757.006553-.231029 0-.34375-.012114-.208621-.047544-.415874-.0625-.625z"/>
  <path fill="url(#L)" d="M98.03125 5.875c-.019743.1054236-.031251.2015227-.03125.3125l.03125 1.59375h.03125L98.03125 5.875zm25 15.5625c-.02449 1.699178-.69166 3.21404-1.75 4.28125-.26578.43635-.61778.837588-1 1.21875L72.875 74.25c.139263.54689.258695 1.075489.375 1.625l47.03125-46.9375c.38222-.381161.73422-.7824 1-1.21875 1.07851-1.08755 1.75-2.636143 1.75-4.375V21.4375zM22.875 66.25c-2.503054.007145-4.991081.965139-6.90625 2.875-2.170763 2.164752-3.125483 5.08883-2.84375 7.90625.227092-2.154865 1.183509-4.250606 2.84375-5.90625 3.830338-3.819729 10.013418-3.850976 13.84375-.03125 1.660242 1.655647 2.616657 3.770467 2.84375 5.9375.281075-2.832697-.673507-5.773265-2.84375-7.9375-1.915166-1.909863-4.434446-2.850895-6.9375-2.84375zM5 80.65625c-.2644406 9.167925 3.0877125 18.419606 10.09375 25.40625C28.596182 119.52753 50.497579 119.49629 64 106.03125c6.088822-6.071947 9.432686-13.817135 10.03125-21.75.004322-.057377-.004046-.130105 0-.1875-.005588-.112754.006553-.231029 0-.34375-.014496-.249617-.043187-.501052-.0625-.75-.743049 7.679336-4.066184 15.145043-9.96875 21.03125-13.502421 13.46504-35.403818 13.49628-48.90625.03125C8.5973572 97.58409 5.2452041 89.157267 5 80.65625z" filter="url(#M)"/>
  <path fill="url(#N)" d="m117.59375 2.0625-11.3125.03125c0 .4502309-.15405.873753-.5 1.21875l-1.09375 1.09375h-4.90625c-.978527.0000099-1.78126.8054493-1.78125 1.78125l.03125 1.65625c.166188-.8061028.893789-1.4374916 1.75-1.4375h4.90625l1.09375-1.09375c.34595-.344997.5-.7685189.5-1.21875l11.3125-.03125c2.82861 0 5.13158 2.3609673 5.40625 5.375V8.03125c-.00001-3.3017137-2.38907-5.96875-5.40625-5.96875zm-25 7.71875c-.27341.0000096-.519486.1091567-.75.21875-.081257.032965-.173343.048179-.25.09375-.023113.015538-.040188.045919-.0625.0625-.098031.064691-.163504.101248-.25.1875l-3.25 3.28125c-.048522.048386-.083287.104017-.125.15625-.393184.322315-.65625.793927-.65625 1.34375v1.90625c.030467-.506281.287471-.947689.65625-1.25.041713-.052233.076478-.107865.125-.15625l3.25-3.28125c.086496-.086252.151969-.122808.25-.1875.022312-.016581.039387-.046962.0625-.0625.076657-.045571.168743-.060784.25-.09375.230514-.109593.47659-.21874.75-.21875h5.46875l-.03125-2h-5.4375zm-5.3125 12L81.375 27.6875h-6.71875c-.978496 0-1.78125.774213-1.78125 1.75v2c0-.975787.802754-1.749999 1.78125-1.75H81.375l5.90625-5.90625v-2zm-19.5625 11.5c-.978491.000003-1.75.805471-1.75 1.78125v2c0-.975779.771509-1.781247 1.75-1.78125H72.875v-2h-5.15625zm-1.75 9.75L63.0625 45.9375c-.691887.689981-1.808102.658731-2.5-.03125l-2-2c-1.121359-1.118257-2.285544-.74347-3.09375.0625L49.9375 49.5c-1.829822-.78843-3.717988-1.464829-5.625-1.96875-.065274-.017251-.122156-.014334-.1875-.03125-10.3093-1.367069-21.114894 1.855563-29.03125 9.75C8.0877123 64.236639 4.7355595 73.488324 5 82.65625 5.2452042 74.155233 8.5973569 65.728404 15.09375 59.25 23.010106 51.355563 33.8157 48.132928 44.125 49.5c.065344.016916.122226.014.1875.03125 1.907012.503921 3.795178 1.180321 5.625 1.96875l5.53125-5.53125c.808206-.80597 1.972391-1.180756 3.09375-.0625l2 2c.691898.689981 1.808113.721232 2.5.03125l2.90625-2.90625v-2zM73.25 77.875l-.375.375c.568617 2.232982.91674 4.468257 1.09375 6.75.023447-.242323.04419-.476085.0625-.71875.004322-.057377-.004046-.130105 0-.1875-.005588-.112754.006553-.231029 0-.34375-.114817-1.977157-.370862-3.936029-.78125-5.875zm-60.125 1.21875c-.277254 2.797834.65794 5.695157 2.8125 7.84375 3.830331 3.819725 10.075915 3.850967 13.90625.03125 2.154562-2.148597 3.089755-5.061341 2.8125-7.875-.22645 2.145196-1.168092 4.235144-2.8125 5.875-3.830335 3.819724-10.075919 3.788475-13.90625-.03125-1.643365-1.638814-2.585298-3.712007-2.8125-5.84375z" filter="url(#O)"/>
  <path fill="#fff" fill-opacity=".75688076" d="M-70.472001-43.149744v-2.794709 2.794709zM-189.9742-129.77999v-2.79471 2.79471zM56.6172-64.024724v-2.794709 2.794709zm-92.624446 73.89368V8.34222v1.526736zM-83.246101-8.9245141v-2.7947089 2.7947089zM48.5958-82.189134v-2.794709 2.794709zm27.6425-43.189976v-2.79471 2.79471zm43.05571 79.4737v-2.79471 2.79471zm131.8419-73.26462v-2.79471 2.79471z"/>
</svg>